<mxfile host="app.diagrams.net" agent="Mozilla/5.0 (Windows NT 10.0; Win64; x64) AppleWebKit/537.36 (KHTML, like Gecko) Chrome/127.0.0.0 Safari/537.36" version="24.7.7">
  <diagram name="Page-1" id="t340oN6dkrDVcfliVaWA">
    <mxGraphModel dx="1434" dy="780" grid="1" gridSize="10" guides="1" tooltips="1" connect="1" arrows="1" fold="1" page="1" pageScale="1" pageWidth="850" pageHeight="1100" math="0" shadow="0">
      <root>
        <mxCell id="0" />
        <mxCell id="1" parent="0" />
        <mxCell id="J7jl9UmmYHnAvoz52ukR-1" value="" style="rounded=0;whiteSpace=wrap;html=1;" parent="1" vertex="1">
          <mxGeometry x="180" y="20" width="490" height="670" as="geometry" />
        </mxCell>
        <mxCell id="J7jl9UmmYHnAvoz52ukR-2" value="USER" style="shape=umlActor;verticalLabelPosition=bottom;verticalAlign=top;html=1;outlineConnect=0;direction=east;fontFamily=Times New Roman;" parent="1" vertex="1">
          <mxGeometry x="60" y="200" width="50" height="60" as="geometry" />
        </mxCell>
        <mxCell id="J7jl9UmmYHnAvoz52ukR-5" value="REGISTER" style="ellipse;whiteSpace=wrap;html=1;" parent="1" vertex="1">
          <mxGeometry x="260" y="190" width="110" height="50" as="geometry" />
        </mxCell>
        <mxCell id="J7jl9UmmYHnAvoz52ukR-7" value="" style="endArrow=classic;html=1;rounded=0;entryX=0.073;entryY=0.74;entryDx=0;entryDy=0;entryPerimeter=0;" parent="1" target="J7jl9UmmYHnAvoz52ukR-5" edge="1">
          <mxGeometry width="50" height="50" relative="1" as="geometry">
            <mxPoint x="120" y="230" as="sourcePoint" />
            <mxPoint x="450" y="380" as="targetPoint" />
          </mxGeometry>
        </mxCell>
        <mxCell id="J7jl9UmmYHnAvoz52ukR-15" value="" style="endArrow=classic;html=1;rounded=0;entryX=0.03;entryY=0.411;entryDx=0;entryDy=0;entryPerimeter=0;exitX=1;exitY=0.5;exitDx=0;exitDy=0;" parent="1" source="J7jl9UmmYHnAvoz52ukR-5" target="J7jl9UmmYHnAvoz52ukR-16" edge="1">
          <mxGeometry width="50" height="50" relative="1" as="geometry">
            <mxPoint x="400" y="430" as="sourcePoint" />
            <mxPoint x="450" y="380" as="targetPoint" />
          </mxGeometry>
        </mxCell>
        <mxCell id="J7jl9UmmYHnAvoz52ukR-65" value="include" style="edgeLabel;html=1;align=center;verticalAlign=middle;resizable=0;points=[];" parent="J7jl9UmmYHnAvoz52ukR-15" vertex="1" connectable="0">
          <mxGeometry x="-0.1618" relative="1" as="geometry">
            <mxPoint as="offset" />
          </mxGeometry>
        </mxCell>
        <mxCell id="J7jl9UmmYHnAvoz52ukR-16" value="VERIFY REGISTRY" style="ellipse;whiteSpace=wrap;html=1;" parent="1" vertex="1">
          <mxGeometry x="410" y="170" width="100" height="40" as="geometry" />
        </mxCell>
        <mxCell id="J7jl9UmmYHnAvoz52ukR-17" value="Extends" style="endArrow=block;endSize=16;endFill=0;html=1;rounded=0;exitX=0.064;exitY=0.667;exitDx=0;exitDy=0;exitPerimeter=0;" parent="1" source="J7jl9UmmYHnAvoz52ukR-18" target="J7jl9UmmYHnAvoz52ukR-5" edge="1">
          <mxGeometry x="1" y="-14" width="160" relative="1" as="geometry">
            <mxPoint x="340" y="400" as="sourcePoint" />
            <mxPoint x="500" y="400" as="targetPoint" />
            <mxPoint x="19" y="-1" as="offset" />
          </mxGeometry>
        </mxCell>
        <mxCell id="J7jl9UmmYHnAvoz52ukR-18" value="Invalid Login" style="ellipse;whiteSpace=wrap;html=1;" parent="1" vertex="1">
          <mxGeometry x="420" y="270" width="110" height="60" as="geometry" />
        </mxCell>
        <mxCell id="J7jl9UmmYHnAvoz52ukR-19" value="" style="endArrow=classic;html=1;rounded=0;" parent="1" edge="1">
          <mxGeometry width="50" height="50" relative="1" as="geometry">
            <mxPoint x="130" y="270" as="sourcePoint" />
            <mxPoint x="250" y="300" as="targetPoint" />
          </mxGeometry>
        </mxCell>
        <mxCell id="J7jl9UmmYHnAvoz52ukR-20" value="Borrow A Book" style="ellipse;whiteSpace=wrap;html=1;" parent="1" vertex="1">
          <mxGeometry x="230" y="290" width="150" height="50" as="geometry" />
        </mxCell>
        <mxCell id="J7jl9UmmYHnAvoz52ukR-21" value="" style="endArrow=classic;html=1;rounded=0;entryX=0.058;entryY=0.32;entryDx=0;entryDy=0;entryPerimeter=0;" parent="1" target="J7jl9UmmYHnAvoz52ukR-22" edge="1">
          <mxGeometry width="50" height="50" relative="1" as="geometry">
            <mxPoint x="130" y="300" as="sourcePoint" />
            <mxPoint x="450" y="380" as="targetPoint" />
          </mxGeometry>
        </mxCell>
        <mxCell id="J7jl9UmmYHnAvoz52ukR-22" value="Renew a Book" style="ellipse;whiteSpace=wrap;html=1;" parent="1" vertex="1">
          <mxGeometry x="220" y="360" width="120" height="50" as="geometry" />
        </mxCell>
        <mxCell id="J7jl9UmmYHnAvoz52ukR-23" value="" style="endArrow=classic;html=1;rounded=0;entryX=0;entryY=0.5;entryDx=0;entryDy=0;" parent="1" target="J7jl9UmmYHnAvoz52ukR-24" edge="1">
          <mxGeometry width="50" height="50" relative="1" as="geometry">
            <mxPoint x="140" y="390" as="sourcePoint" />
            <mxPoint x="450" y="480" as="targetPoint" />
          </mxGeometry>
        </mxCell>
        <mxCell id="J7jl9UmmYHnAvoz52ukR-24" value="Return a Book" style="ellipse;whiteSpace=wrap;html=1;" parent="1" vertex="1">
          <mxGeometry x="220" y="430" width="140" height="50" as="geometry" />
        </mxCell>
        <mxCell id="J7jl9UmmYHnAvoz52ukR-25" value="" style="endArrow=classic;html=1;rounded=0;entryX=0;entryY=0.36;entryDx=0;entryDy=0;entryPerimeter=0;" parent="1" target="J7jl9UmmYHnAvoz52ukR-26" edge="1">
          <mxGeometry width="50" height="50" relative="1" as="geometry">
            <mxPoint x="130" y="420" as="sourcePoint" />
            <mxPoint x="450" y="480" as="targetPoint" />
          </mxGeometry>
        </mxCell>
        <mxCell id="J7jl9UmmYHnAvoz52ukR-26" value="Become a Member" style="ellipse;whiteSpace=wrap;html=1;" parent="1" vertex="1">
          <mxGeometry x="230" y="530" width="150" height="50" as="geometry" />
        </mxCell>
        <mxCell id="J7jl9UmmYHnAvoz52ukR-27" value="" style="endArrow=classic;html=1;rounded=0;exitX=1;exitY=0.5;exitDx=0;exitDy=0;entryX=0;entryY=0.5;entryDx=0;entryDy=0;" parent="1" source="J7jl9UmmYHnAvoz52ukR-26" target="J7jl9UmmYHnAvoz52ukR-29" edge="1">
          <mxGeometry width="50" height="50" relative="1" as="geometry">
            <mxPoint x="400" y="430" as="sourcePoint" />
            <mxPoint x="450" y="380" as="targetPoint" />
          </mxGeometry>
        </mxCell>
        <mxCell id="J7jl9UmmYHnAvoz52ukR-66" value="include" style="edgeLabel;html=1;align=center;verticalAlign=middle;resizable=0;points=[];" parent="J7jl9UmmYHnAvoz52ukR-27" vertex="1" connectable="0">
          <mxGeometry x="0.0059" y="1" relative="1" as="geometry">
            <mxPoint as="offset" />
          </mxGeometry>
        </mxCell>
        <mxCell id="J7jl9UmmYHnAvoz52ukR-29" value="Borrow all types of books" style="ellipse;whiteSpace=wrap;html=1;" parent="1" vertex="1">
          <mxGeometry x="460" y="500" width="70" height="70" as="geometry" />
        </mxCell>
        <mxCell id="J7jl9UmmYHnAvoz52ukR-30" value="Fine Rs.5" style="ellipse;whiteSpace=wrap;html=1;" parent="1" vertex="1">
          <mxGeometry x="390" y="380" width="110" height="40" as="geometry" />
        </mxCell>
        <mxCell id="J7jl9UmmYHnAvoz52ukR-31" value="Extends" style="endArrow=block;endSize=16;endFill=0;html=1;rounded=0;exitX=0;exitY=0.5;exitDx=0;exitDy=0;" parent="1" source="J7jl9UmmYHnAvoz52ukR-30" target="J7jl9UmmYHnAvoz52ukR-24" edge="1">
          <mxGeometry width="160" relative="1" as="geometry">
            <mxPoint x="340" y="400" as="sourcePoint" />
            <mxPoint x="500" y="400" as="targetPoint" />
          </mxGeometry>
        </mxCell>
        <mxCell id="J7jl9UmmYHnAvoz52ukR-35" value="Extends" style="endArrow=block;endSize=16;endFill=0;html=1;rounded=0;exitX=0;exitY=0;exitDx=0;exitDy=0;" parent="1" source="J7jl9UmmYHnAvoz52ukR-30" target="J7jl9UmmYHnAvoz52ukR-22" edge="1">
          <mxGeometry width="160" relative="1" as="geometry">
            <mxPoint x="340" y="400" as="sourcePoint" />
            <mxPoint x="500" y="400" as="targetPoint" />
          </mxGeometry>
        </mxCell>
        <mxCell id="J7jl9UmmYHnAvoz52ukR-36" value="Librarian" style="shape=umlActor;verticalLabelPosition=bottom;verticalAlign=top;html=1;" parent="1" vertex="1">
          <mxGeometry x="690" y="130" width="70" height="120" as="geometry" />
        </mxCell>
        <mxCell id="J7jl9UmmYHnAvoz52ukR-39" value="Staff" style="shape=umlActor;verticalLabelPosition=bottom;verticalAlign=top;html=1;outlineConnect=0;direction=east;fontFamily=Times New Roman;" parent="1" vertex="1">
          <mxGeometry x="100" y="340" width="30" height="60" as="geometry" />
        </mxCell>
        <mxCell id="J7jl9UmmYHnAvoz52ukR-44" value="Maintenance of records" style="ellipse;whiteSpace=wrap;html=1;" parent="1" vertex="1">
          <mxGeometry x="540" y="140" width="100" height="40" as="geometry" />
        </mxCell>
        <mxCell id="J7jl9UmmYHnAvoz52ukR-45" value="" style="endArrow=classic;html=1;rounded=0;entryX=1;entryY=1;entryDx=0;entryDy=0;" parent="1" target="J7jl9UmmYHnAvoz52ukR-47" edge="1">
          <mxGeometry width="50" height="50" relative="1" as="geometry">
            <mxPoint x="540" y="160" as="sourcePoint" />
            <mxPoint x="579.3750000000002" y="70" as="targetPoint" />
          </mxGeometry>
        </mxCell>
        <mxCell id="J7jl9UmmYHnAvoz52ukR-68" value="include" style="edgeLabel;html=1;align=center;verticalAlign=middle;resizable=0;points=[];" parent="J7jl9UmmYHnAvoz52ukR-45" vertex="1" connectable="0">
          <mxGeometry x="-0.0406" relative="1" as="geometry">
            <mxPoint as="offset" />
          </mxGeometry>
        </mxCell>
        <mxCell id="J7jl9UmmYHnAvoz52ukR-47" value="ADD Book" style="ellipse;whiteSpace=wrap;html=1;" parent="1" vertex="1">
          <mxGeometry x="400" y="80" width="110" height="60" as="geometry" />
        </mxCell>
        <mxCell id="J7jl9UmmYHnAvoz52ukR-48" value="" style="endArrow=classic;html=1;rounded=0;entryX=1;entryY=1;entryDx=0;entryDy=0;" parent="1" source="J7jl9UmmYHnAvoz52ukR-44" target="J7jl9UmmYHnAvoz52ukR-49" edge="1">
          <mxGeometry width="50" height="50" relative="1" as="geometry">
            <mxPoint x="400" y="430" as="sourcePoint" />
            <mxPoint x="450" y="380" as="targetPoint" />
          </mxGeometry>
        </mxCell>
        <mxCell id="J7jl9UmmYHnAvoz52ukR-67" value="include" style="edgeLabel;html=1;align=center;verticalAlign=middle;resizable=0;points=[];" parent="J7jl9UmmYHnAvoz52ukR-48" vertex="1" connectable="0">
          <mxGeometry x="-0.0191" y="1" relative="1" as="geometry">
            <mxPoint as="offset" />
          </mxGeometry>
        </mxCell>
        <mxCell id="J7jl9UmmYHnAvoz52ukR-49" value="Delete Books" style="ellipse;whiteSpace=wrap;html=1;" parent="1" vertex="1">
          <mxGeometry x="490" y="40" width="90" height="40" as="geometry" />
        </mxCell>
        <mxCell id="J7jl9UmmYHnAvoz52ukR-50" value="" style="endArrow=classic;html=1;rounded=0;entryX=0.7;entryY=1;entryDx=0;entryDy=0;entryPerimeter=0;" parent="1" source="J7jl9UmmYHnAvoz52ukR-36" target="J7jl9UmmYHnAvoz52ukR-44" edge="1">
          <mxGeometry width="50" height="50" relative="1" as="geometry">
            <mxPoint x="400" y="430" as="sourcePoint" />
            <mxPoint x="450" y="380" as="targetPoint" />
          </mxGeometry>
        </mxCell>
        <mxCell id="J7jl9UmmYHnAvoz52ukR-56" value="Issue Membership" style="ellipse;whiteSpace=wrap;html=1;" parent="1" vertex="1">
          <mxGeometry x="550" y="260" width="90" height="60" as="geometry" />
        </mxCell>
        <mxCell id="J7jl9UmmYHnAvoz52ukR-57" value="" style="endArrow=classic;html=1;rounded=0;entryX=0.678;entryY=0.083;entryDx=0;entryDy=0;entryPerimeter=0;" parent="1" source="J7jl9UmmYHnAvoz52ukR-36" target="J7jl9UmmYHnAvoz52ukR-56" edge="1">
          <mxGeometry width="50" height="50" relative="1" as="geometry">
            <mxPoint x="400" y="430" as="sourcePoint" />
            <mxPoint x="450" y="380" as="targetPoint" />
          </mxGeometry>
        </mxCell>
        <mxCell id="J7jl9UmmYHnAvoz52ukR-58" value="Update Membership" style="ellipse;whiteSpace=wrap;html=1;" parent="1" vertex="1">
          <mxGeometry x="530" y="360" width="90" height="50" as="geometry" />
        </mxCell>
        <mxCell id="J7jl9UmmYHnAvoz52ukR-59" value="" style="endArrow=classic;html=1;rounded=0;entryX=0.744;entryY=0.04;entryDx=0;entryDy=0;entryPerimeter=0;" parent="1" target="J7jl9UmmYHnAvoz52ukR-58" edge="1">
          <mxGeometry width="50" height="50" relative="1" as="geometry">
            <mxPoint x="690" y="260" as="sourcePoint" />
            <mxPoint x="450" y="380" as="targetPoint" />
          </mxGeometry>
        </mxCell>
        <mxCell id="J7jl9UmmYHnAvoz52ukR-60" value="MANAGER&lt;div&gt;&lt;br&gt;&lt;/div&gt;" style="shape=umlActor;verticalLabelPosition=bottom;verticalAlign=top;html=1;" parent="1" vertex="1">
          <mxGeometry x="700" y="400" width="50" height="60" as="geometry" />
        </mxCell>
        <mxCell id="J7jl9UmmYHnAvoz52ukR-69" value="Staffing" style="ellipse;whiteSpace=wrap;html=1;" parent="1" vertex="1">
          <mxGeometry x="530" y="440" width="70" height="30" as="geometry" />
        </mxCell>
        <mxCell id="J7jl9UmmYHnAvoz52ukR-70" value="" style="endArrow=classic;html=1;rounded=0;" parent="1" target="J7jl9UmmYHnAvoz52ukR-69" edge="1">
          <mxGeometry width="50" height="50" relative="1" as="geometry">
            <mxPoint x="690" y="460" as="sourcePoint" />
            <mxPoint x="450" y="380" as="targetPoint" />
          </mxGeometry>
        </mxCell>
        <mxCell id="J7jl9UmmYHnAvoz52ukR-71" value="Reporting" style="ellipse;whiteSpace=wrap;html=1;" parent="1" vertex="1">
          <mxGeometry x="540" y="510" width="80" height="40" as="geometry" />
        </mxCell>
        <mxCell id="J7jl9UmmYHnAvoz52ukR-72" value="" style="endArrow=classic;html=1;rounded=0;" parent="1" target="J7jl9UmmYHnAvoz52ukR-71" edge="1">
          <mxGeometry width="50" height="50" relative="1" as="geometry">
            <mxPoint x="690" y="480" as="sourcePoint" />
            <mxPoint x="450" y="380" as="targetPoint" />
          </mxGeometry>
        </mxCell>
        <mxCell id="J7jl9UmmYHnAvoz52ukR-73" value="budgeting" style="ellipse;whiteSpace=wrap;html=1;" parent="1" vertex="1">
          <mxGeometry x="560" y="590" width="100" height="70" as="geometry" />
        </mxCell>
        <mxCell id="J7jl9UmmYHnAvoz52ukR-74" value="" style="endArrow=classic;html=1;rounded=0;" parent="1" target="J7jl9UmmYHnAvoz52ukR-73" edge="1">
          <mxGeometry width="50" height="50" relative="1" as="geometry">
            <mxPoint x="710" y="500" as="sourcePoint" />
            <mxPoint x="450" y="380" as="targetPoint" />
          </mxGeometry>
        </mxCell>
        <mxCell id="J7jl9UmmYHnAvoz52ukR-76" value="Student" style="shape=umlActor;verticalLabelPosition=bottom;verticalAlign=top;html=1;outlineConnect=0;" parent="1" vertex="1">
          <mxGeometry x="30" y="340" width="30" height="60" as="geometry" />
        </mxCell>
        <mxCell id="J7jl9UmmYHnAvoz52ukR-80" value="" style="endArrow=classic;html=1;rounded=0;" parent="1" edge="1">
          <mxGeometry width="50" height="50" relative="1" as="geometry">
            <mxPoint x="80" y="280" as="sourcePoint" />
            <mxPoint x="40" y="330" as="targetPoint" />
          </mxGeometry>
        </mxCell>
        <mxCell id="J7jl9UmmYHnAvoz52ukR-81" value="" style="endArrow=classic;html=1;rounded=0;" parent="1" edge="1">
          <mxGeometry width="50" height="50" relative="1" as="geometry">
            <mxPoint x="100" y="280" as="sourcePoint" />
            <mxPoint x="120" y="330" as="targetPoint" />
          </mxGeometry>
        </mxCell>
        <mxCell id="J7jl9UmmYHnAvoz52ukR-82" value="LIBRARY MANAGEMENT SYSTEM" style="rounded=0;whiteSpace=wrap;html=1;" parent="1" vertex="1">
          <mxGeometry x="280" y="30" width="200" height="40" as="geometry" />
        </mxCell>
      </root>
    </mxGraphModel>
  </diagram>
</mxfile>
